# xmcd
#
# Track frame offsets: 
#        150
#        24627
#        56921
#        134659
#        181142
#        237197
#        289402
#
# Disc length: 4428 seconds
#
# Revision: 1
# Processed by: cddbd v1.5.2PL0 Copyright (c) Steve Scherf et al.
# Submitted via: ExactAudioCopy v1.1
#
DISCID=69114a07
DTITLE=Hauke Nissen - Ein Spaziergang am Strand CD 2 v. 2
DYEAR=2011
DGENRE=New Age
TTITLE0=Morgend‰mmerung
TTITLE1=Sanfte Brise
TTITLE2=Mein Sommerstrand
TTITLE3=Weiﬂes Segel am Horizont
TTITLE4=Abendhimmel
TTITLE5=Magischer Himmel II
TTITLE6=Ein Abend am Meer
EXTD=YEAR: 2011
EXTT0=
EXTT1=
EXTT2=
EXTT3=
EXTT4=
EXTT5=
EXTT6=
PLAYORDER=
